<?xml version="1.0" encoding="iso-8859-1"?>
<!-- Generator: Adobe Illustrator 19.0.0, SVG Export Plug-In . SVG Version: 6.00 Build 0)  -->
<svg version="1.1" id="Layer_1" xmlns="http://www.w3.org/2000/svg" xmlns:xlink="http://www.w3.org/1999/xlink" x="0px" y="0px"
	 viewBox="0 0 318.965 318.965" style="enable-background:new 0 0 318.965 318.965;" xml:space="preserve">
<g>
	<g>
		<path style="fill:#EAE5DC;" d="M303.673,253.518c-11.151-37.754-67.121-33.566-91.279-44.408
			c-24.157-10.842-20.386-47.219-23.449-53.548h-58.932c-3.058,6.329,0.714,42.711-23.449,53.548
			c-24.157,10.842-80.133,6.655-91.279,44.408c-6.149,20.824-5.857,27.193-7.554,50.26c0,0,76.8,15.187,150.014,15.187
			s153.488-15.187,153.488-15.187C309.53,280.705,309.822,274.342,303.673,253.518z"/>
		<path style="fill:#E0DBD3;" d="M303.673,253.518c-11.151-37.754-67.121-33.566-91.279-44.408
			c-24.157-10.842-20.386-47.219-23.449-53.548H157.74c0,0-0.719,51.024,23.438,61.866s80.133,6.655,91.279,44.408
			c5.857,19.83,5.868,26.552,7.324,47.073c19.234-2.816,31.442-5.126,31.442-5.126C309.53,280.705,309.822,274.342,303.673,253.518z
			"/>
		<path style="fill:#2A6D7F;" d="M60.621,312.068c27.631,3.552,62.771,6.897,97.124,6.897c35.112,0,71.854-3.496,100.581-7.133
			v-35.326c0,0-56.853,8.526-100.721,8.526s-96.978-8.526-96.978-8.526v35.562L60.621,312.068L60.621,312.068z"/>
		<path style="fill:#2A6D7F;" d="M60.621,276.506c0,0,0-29.795-9.392-55.363l21.178-4.929c0,0,14.439,34.078,10.78,81.246
			L60.621,276.506z"/>
		<path style="fill:#2A6D7F;" d="M258.322,276.506c0,0,0-29.795,9.392-55.363l-21.178-4.929c0,0-14.439,34.078-10.78,81.246
			L258.322,276.506z"/>
		<path style="fill:#246372;" d="M261.564,244.266c1.377-7.481,3.344-15.49,6.149-23.123l-21.178-4.929
			c0,0-2.529,5.969-5.205,16.367C248.974,235.403,255.982,239.095,261.564,244.266z"/>
		<path style="fill:#3D7784;" d="M99.347,303.536v12.714c18.677,1.613,38.664,2.715,58.398,2.715
			c20.712,0,41.992-1.214,61.855-2.962v-12.467L99.347,303.536L99.347,303.536z"/>
		<path style="fill:#4C3626;" d="M82.991,279.609l-21.381,1.074c-2.709,0.135-5.025-1.956-5.16-4.665l-0.461-9.122
			c-0.135-2.709,1.956-5.025,4.665-5.16l21.381-1.074c2.709-0.135,5.025,1.956,5.16,4.665l0.461,9.122
			C87.791,277.158,85.7,279.474,82.991,279.609z M60.801,264.647c-1.107,0.056-1.962,1-1.905,2.108l0.461,9.122
			c0.056,1.107,1,1.962,2.108,1.905l21.381-1.074c1.107-0.056,1.962-1,1.905-2.108l-0.461-9.122c-0.056-1.107-1-1.962-2.108-1.905
			L60.801,264.647z"/>
		<path style="fill:#4C3626;" d="M231.336,274.449l0.461-9.122c0.135-2.709,2.451-4.8,5.16-4.665l21.381,1.074
			c2.709,0.135,4.8,2.451,4.665,5.16l-0.461,9.122c-0.135,2.709-2.451,4.8-5.16,4.665l-21.381-1.074
			C233.292,279.474,231.201,277.158,231.336,274.449z M236.805,263.573c-1.107-0.056-2.052,0.798-2.108,1.905l-0.461,9.122
			c-0.056,1.107,0.798,2.052,1.905,2.108l21.381,1.074c1.107,0.056,2.052-0.798,2.108-1.905l0.461-9.122
			c0.056-1.107-0.798-2.052-1.905-2.108L236.805,263.573z"/>
		<path style="fill:#D3CEC7;" d="M190.092,226.382c9.741-3.805,17.756-9.409,23.168-16.21l0.416-0.517
			c-0.433-0.18-0.86-0.36-1.276-0.545c-24.157-10.842-20.386-47.219-23.449-53.548h-58.938c-3.058,6.329,0.714,42.711-23.449,53.548
			c-0.416,0.185-0.843,0.371-1.276,0.545l0.416,0.517c5.413,6.795,13.428,12.399,23.168,16.21c9.229,3.603,19.813,5.508,30.61,5.508
			S180.863,229.984,190.092,226.382z"/>
		<path style="fill:#C6C1BA;" d="M212.395,209.109c-4.345-1.95-7.779-4.727-10.516-8.004l0,0
			c-5.064,6.357-13.827,11.404-24.573,14.096c1.214,0.86,2.507,1.607,3.878,2.22c4.71,2.113,10.634,3.659,17.199,5.053
			c6.031-3.378,11.089-7.548,14.872-12.304l0.416-0.517C213.238,209.48,212.811,209.295,212.395,209.109z"/>
		<path style="fill:#DBB491;" d="M201.878,201.106c-12.5-14.951-10.421-40.356-12.927-45.549h-58.938
			c-2.512,5.193-0.427,30.599-12.927,45.549c7.655,9.611,23.764,16.232,42.396,16.232S194.223,210.717,201.878,201.106z"/>
		<path style="fill:#CCA483;" d="M177.305,215.202c10.747-2.692,19.509-7.74,24.573-14.096
			c-12.5-14.951-10.421-40.356-12.927-45.549h-31.206C157.745,155.562,157.105,200.948,177.305,215.202z"/>
		<path style="fill:#C69E7F;" d="M122.083,193.158c9.78,7.959,21.24,15.85,37.338,18.132c16.137-2.288,27.569-10.342,37.36-18.334
			c-8.144-14.973-5.626-32.83-7.83-37.4h-58.938C127.799,160.131,130.266,178.179,122.083,193.158z"/>
		
			<ellipse transform="matrix(-0.177 0.9842 -0.9842 -0.177 385.6561 -85.3711)" style="fill:#CCA483;" cx="228.522" cy="118.558" rx="21.386" ry="11.629"/>
		
			<ellipse transform="matrix(-0.9842 0.177 -0.177 -0.9842 200.0903 219.2807)" style="fill:#DBB491;" cx="90.265" cy="118.565" rx="11.629" ry="21.386"/>
		<path style="fill:#DBB491;" d="M223.641,47.365H159.42H95.233c0,0-35.989,146.614,64.187,160.806
			C259.636,193.979,223.641,47.365,223.641,47.365z"/>
		<path style="fill:#CCA483;" d="M159.42,208.171c100.216-14.192,64.221-160.806,64.221-160.806h-15.024
			c4.114,61.242,9.808,93.774-13.815,129.24C176.085,204.708,159.42,208.171,159.42,208.171z"/>
		<path style="fill:#CCA483;" d="M192.666,55.234L90.309,83.365c8.661,3.468,25.574,9.864,61.748,9.707
			c20.133-0.09,64.412-6.239,74.203-29.795L192.666,55.234z"/>
		<path style="fill:#2F3233;" d="M187.838,5.48c0,0-19.824-9.33-46.477-3.642c-19.953,4.26-52.423,17.829-59.73,46.893
			c0,0-10.932,47.483,7.683,67.931c0,0-0.916-18.548,0.956-33.313c0,0,22.837,5.593,49.04,5.649
			c27.856,0.056,64.997-4.519,86.951-25.72c0,0,3.294,20.167,3.294,53.385c0,0,5.93-9.111,7.189-21.207
			c2.855-27.44-2.748-65.958-23.292-64.693C213.446,30.756,204.745,13.49,187.838,5.48z"/>
		<path style="fill:#2F3233;" d="M158.583,164.617c-3.035,11.247,17.486,20.347,31.223,17.21
			c10.887-2.49,10.887-13.579,10.887-13.579s-6.947,5.806-13.478,0C178.772,160.738,162.264,150.981,158.583,164.617z"/>
		<path style="fill:#2F3233;" d="M160.376,164.617c3.035,11.247-17.486,20.347-31.223,17.21
			c-10.887-2.49-10.887-13.579-10.887-13.579s6.947,5.806,13.478,0C140.187,160.738,156.7,150.981,160.376,164.617z"/>
	</g>
</g>
<g>
</g>
<g>
</g>
<g>
</g>
<g>
</g>
<g>
</g>
<g>
</g>
<g>
</g>
<g>
</g>
<g>
</g>
<g>
</g>
<g>
</g>
<g>
</g>
<g>
</g>
<g>
</g>
<g>
</g>
</svg>
