<?xml version="1.0" encoding="iso-8859-1"?>
<!-- Generator: Adobe Illustrator 19.0.0, SVG Export Plug-In . SVG Version: 6.00 Build 0)  -->
<svg version="1.1" id="Layer_1" xmlns="http://www.w3.org/2000/svg" xmlns:xlink="http://www.w3.org/1999/xlink" x="0px" y="0px"
	 viewBox="0 0 318.549 318.549" style="enable-background:new 0 0 318.549 318.549;" xml:space="preserve">
<g>
	<g>
		<path style="fill:#348789;" d="M295.51,253.102c-10.533-37.754-63.417-33.566-86.243-44.408
			c-22.825-10.842-19.262-47.219-22.151-53.548h-55.683c-2.889,6.329,0.674,42.711-22.151,53.548
			c-22.825,10.842-75.71,6.655-86.243,44.408c-5.812,20.824-5.531,27.193-7.138,50.26c0,0,72.562,15.187,141.735,15.187
			s145.017-15.187,145.017-15.187C301.041,280.289,301.317,273.926,295.51,253.102z"/>
		<path style="fill:#2E7F7F;" d="M179.776,217.006c22.825,10.842,75.71,6.655,86.243,44.408c5.536,19.83,5.548,26.552,6.919,47.073
			c18.171-2.816,29.705-5.126,29.705-5.126c-1.608-23.067-1.326-29.435-7.138-50.26c-10.533-37.754-63.417-33.566-86.243-44.408
			c-22.825-10.842-19.262-47.219-22.151-53.548h-29.48C157.631,155.146,156.951,206.17,179.776,217.006z"/>
		<polygon style="fill:#2E7F7F;" points="111.801,207.328 111.801,207.328 108.164,235.706 159.211,265.967 		"/>
		<polygon style="fill:#2E7F7F;" points="159.211,265.967 209.161,235.706 206.204,206.99 		"/>
		<polygon style="fill:#E8C59E;" points="159.211,265.967 195.3,192.04 122.677,192.04 		"/>
		<path style="fill:#DDB58E;" d="M162.549,192.04c3.204,10.797,8.498,20.824,17.227,24.967c0.877,0.416,1.799,0.809,2.754,1.186
			l12.764-26.153H162.549z"/>
		<path style="fill:#5C9EA0;" d="M159.211,265.967l-36.225-74.85c0,0-3.204,4.817-11.191,16.21l0.506,24.933L159.211,265.967z"/>
		<path style="fill:#5C9EA0;" d="M159.211,265.967l35.354-74.85c0,0,3.648,4.48,11.635,15.873l-0.955,25.27L159.211,265.967z"/>
		<path style="fill:#51989E;" d="M205.558,224.06l0.646-17.07c-7.987-11.393-11.635-15.873-11.635-15.873l-12.668,26.822
			C188.314,220.553,196.633,222.256,205.558,224.06z"/>
		<g>
			<ellipse style="fill:#E0DBD3;" cx="159.211" cy="281.43" rx="6.329" ry="6.7"/>
			<ellipse style="fill:#E0DBD3;" cx="159.211" cy="306.374" rx="6.329" ry="6.7"/>
		</g>
		<path style="fill:#CCA281;" d="M123.936,192.742c9.24,7.959,20.071,15.85,35.275,18.132c15.249-2.288,26.046-10.342,35.297-18.334
			c-7.695-14.973-5.311-32.83-7.402-37.4h-55.683C129.337,159.715,131.67,177.763,123.936,192.742z"/>
		<path style="fill:#E8C59E;" d="M15.896,303.361c0,0,24.399,5.109,58.393,9.398l-56.161-37.265
			C17.082,283.183,16.767,290.794,15.896,303.361z"/>
		<path style="fill:#E8C59E;" d="M300.412,275.489l-55.706,36.961c33.639-4.221,57.943-9.089,57.943-9.089
			C301.772,290.788,301.457,283.178,300.412,275.489z"/>
		<path style="fill:#DDB58E;" d="M302.649,303.361c-0.877-12.568-1.192-20.178-2.237-27.873l-28.423,18.857
			c0.309,4.058,0.579,8.594,0.95,14.141C291.115,305.672,302.649,303.361,302.649,303.361z"/>
		<path style="fill:#EAE5DC;" d="M248.561,218.052l-21.297-4.345c0,0-4.53,43.374-5.93,101.373
			c7.515-0.748,14.777-1.568,21.667-2.422C244.413,257.773,248.561,218.052,248.561,218.052z"/>
		<path style="fill:#EAE5DC;" d="M69.961,218.052c0,0,4.165,39.845,5.57,94.859c6.88,0.86,14.141,1.681,21.667,2.422
			c-1.394-58.128-5.935-101.626-5.935-101.626L69.961,218.052z"/>
		<path style="fill:#E0DBD3;" d="M225.905,228.669c7.459,2.063,14.687,4.693,20.982,8.453c0.95-12.112,1.675-19.071,1.675-19.071
			l-21.297-4.345C227.265,213.707,226.697,219.12,225.905,228.669z"/>
		<g>
			<path style="fill:#2F3233;" d="M112.475,183.738c0,0-56.358-35.646-47.73-107.444C69.32,38.248,91.325,0,157.94,0
				c58.319,0,72.135,25.534,68.993,44.47c0,0,8.504-0.146,14.063,5.092c8.071,7.605,15.355,52.097,2.467,87.232
				c-14.524,39.586-37.422,46.943-37.422,46.943h-93.566V183.738z"/>
			
				<ellipse transform="matrix(-0.177 0.9842 -0.9842 -0.177 380.1059 -81.561)" style="fill:#DDB58E;" cx="224.154" cy="118.142" rx="21.386" ry="11.629"/>
			
				<ellipse transform="matrix(-0.9842 0.177 -0.177 -0.9842 207.852 217.7559)" style="fill:#E8C59E;" cx="94.214" cy="118.149" rx="11.629" ry="21.386"/>
			<path style="fill:#E8C59E;" d="M219.643,46.949l-59.91,9.218c0,0-21.229,0.922-38.552,9.729
				c-15.901,8.088-28.002,23.91-28.159,28.378c-1.551,44.156,7.464,104.645,66.172,113.48
				C253.524,193.563,219.643,46.949,219.643,46.949z"/>
			<path style="fill:#DDB58E;" d="M159.194,207.755c94.331-14.192,60.45-160.806,60.45-160.806h-14.141
				c3.873,61.242,9.229,93.774-13.006,129.24C174.881,204.292,159.194,207.755,159.194,207.755z"/>
			<path style="fill:#DDB58E;" d="M217.401,40.418c0,0-32.701,15.721-81.51,14.883c-43.031-0.736-42.464,36.146-42.84,38.636
				c0,0,10.033-18.593,38.012-23.685c25.422-4.626,45.662,3.114,63.839,4.822c20.223,1.9,26.968-13.445,26.968-13.445
				L217.401,40.418z"/>
			<path style="fill:#2F3233;" d="M215.664,34.415c0,0-30.975,18.171-79.773,16.733c-52.154-1.54-43.11,41.654-42.84,42.795
				c0,0,5.379-20.24,33.094-26.76c17.992-4.232,35.286-2.552,53.222,1.006c40.339,8.004,43.897-15.918,43.897-15.918
				S225.286,42.953,215.664,34.415z"/>
		</g>
	</g>
</g>
<g>
</g>
<g>
</g>
<g>
</g>
<g>
</g>
<g>
</g>
<g>
</g>
<g>
</g>
<g>
</g>
<g>
</g>
<g>
</g>
<g>
</g>
<g>
</g>
<g>
</g>
<g>
</g>
<g>
</g>
</svg>
